<?xml version="1.0" encoding="UTF-8"?>
<svg xmlns="http://www.w3.org/2000/svg" xmlns:xlink="http://www.w3.org/1999/xlink" width="32pt" height="32pt" viewBox="0 0 32 32" version="1.1">
<g id="surface416">
<path style="fill:none;stroke-width:0.75;stroke-linecap:round;stroke-linejoin:round;stroke:rgb(0%,0%,0%);stroke-opacity:1;stroke-miterlimit:10;" d="M 26.667969 16 L 26.578125 17.363281 L 26.316406 18.707031 L 25.886719 20.003906 L 25.292969 21.234375 L 24.546875 22.378906 L 23.664063 23.421875 L 22.652344 24.339844 L 21.53125 25.121094 L 20.316406 25.753906 L 19.035156 26.226563 L 17.703125 26.53125 L 16.34375 26.660156 L 14.976563 26.617188 L 13.625 26.398438 L 12.316406 26.011719 L 11.066406 25.457031 L 9.898438 24.75 L 8.828125 23.894531 L 7.878906 22.914063 L 7.058594 21.820313 L 6.390625 20.628906 L 5.875 19.359375 L 5.53125 18.039063 L 5.355469 16.683594 L 5.355469 15.316406 L 5.53125 13.960938 L 5.875 12.640625 L 6.390625 11.371094 L 7.058594 10.179688 L 7.878906 9.085938 L 8.828125 8.105469 L 9.898438 7.25 L 11.066406 6.542969 L 12.316406 5.988281 L 13.625 5.601563 L 14.976563 5.382813 L 16.34375 5.339844 L 17.703125 5.46875 L 19.035156 5.773438 L 20.316406 6.246094 L 21.53125 6.878906 L 22.652344 7.660156 L 23.664063 8.578125 L 24.546875 9.621094 L 25.292969 10.765625 L 25.886719 11.996094 L 26.316406 13.292969 L 26.578125 14.636719 Z M 26.667969 16 "/>
</g>
</svg>
